<?xml version="1.0" encoding="utf-8"?>
<?xml-stylesheet type="text/xsl" href="rss1.xsl"?>
<rss version="2.0" xmlns:atom="http://www.w3.org/2005/Atom" xmlns:content="http://purl.org/rss/1.0/modules/content/" xmlns:dc="http://purl.org/dc/elements/1.1/" xmlns:media="http://search.yahoo.com/mrss/">
<channel>
 <title>Getty</title>
 <link>http://www.gettyimg.com/</link>
 <atom:link href="http://www.gettyimg.com/" rel="self" type="application/rss+xml" />

 
                <item>
                <title><![CDATA[【PRORES HD】Nathy Peluso - Copa Glasé [Master Clean ProRes 1080p] - 2019]]></title>
                <link><![CDATA[https://sharemania.us/threads/nathy-peluso-copa-glas%C3%A9-master-clean-prores-1080p-2019.222070/]]></link>
                <description><![CDATA[<article>
<blockquote class="messageText SelectQuoteContainer ugc baseHtml">
<div style="text-align: center"><img src="https://i.imgur.com/RieMGRa.png" class="bbCodeImage LbImage" alt="[​IMG]" data-url="https://i.imgur.com/RieMGRa.png" style=""><br>
<br>
<img src="https://i.imgur.com/djmKcXZ.png" class="bbCodeImage LbImage" alt="[​IMG]" data-url="https://i.imgur.com/djmKcXZ.png" style="">​</div><br>
<div class="ToggleTriggerAnchor bbCodeSpoilerContainer">
<button type="button" class="button bbCodeSpoilerButton ToggleTrigger Tooltip JsOnly" data-target="> .SpoilerTarget"><span>Spoiler: <span class="SpoilerTitle">MediaInfo</span></span></button>
<div class="SpoilerTarget bbCodeSpoilerText">
<div class="bbCodeBlock bbCodeCode">
<div class="type">Code:</div>
<pre>General
Complete name                  : Nathy Peluso - Copa Glasé [Master Clean ProRes 1080p] - 2019.mov
Format                         : MPEG-4
Format profile                 : QuickTime
Codec ID                       : qt   2005.03 (qt  )
File size                      : 4.49 GiB
Duration                       : 3 min 43 s
Overall bit rate mode          : Variable
Overall bit rate               : 173 Mb/s
Frame rate                     : 25.000 FPS
Encoded date                   : 2019-11-27 12:49:50 UTC
Tagged date                    : 2019-11-27 13:29:23 UTC
Writing library                : Apple QuickTime
TIM                            : 00:00:00:00
TSC                            : 25
TSZ                            : 1

Video
ID                             : 1
Format                         : ProRes
Format version                 : Version 0
Format profile                 : 422 HQ
Codec ID                       : apch
Duration                       : 3 min 43 s
Bit rate mode                  : Variable
Bit rate                       : 171 Mb/s
Width                          : 1 920 pixels
Height                         : 1 080 pixels
Display aspect ratio           : 16:9
Frame rate mode                : Constant
Frame rate                     : 25.000 FPS
Color space                    : YUV
Chroma subsampling             : 4:2:2
Scan type                      : Progressive
Bits/(Pixel*Frame)             : 3.306
Stream size                    : 4.45 GiB (99%)
Writing library                : Apple
Language                       : English
Encoded date                   : 2019-11-27 12:49:50 UTC
Tagged date                    : 2019-11-27 12:49:50 UTC
Color primaries                : BT.709
Transfer characteristics       : BT.709
Matrix coefficients            : BT.709
Menus                          : 0

Audio
ID                             : 2
Format                         : PCM
Format settings                : Little / Signed
Codec ID                       : sowt
Duration                       : 3 min 43 s
Bit rate mode                  : Constant
Bit rate                       : 1 536 kb/s
Channel(s)                     : 2 channels
Channel layout                 : L R
Sampling rate                  : 48.0 kHz
Bit depth                      : 16 bits
Stream size                    : 40.8 MiB (1%)
Language                       : English
Encoded date                   : 2019-11-27 12:49:50 UTC
Tagged date                    : 2019-11-27 12:49:50 UTC
Menus                          : 0

Other
ID                             : 3
Type                           : Time code
Format                         : QuickTime TC
Duration                       : 3 min 43 s
Frame rate                     : 25.000 FPS
Time code of first frame       : 00:00:00:00
Time code of last frame        : 00:03:43:01
Time code, stripped            : Yes
Language                       : English
Encoded date                   : 2019-11-27 12:49:50 UTC
Tagged date                    : 2019-11-27 12:49:50 UTC
</pre>
</div></div>
</div><br>
<div style="text-align: center"><b>DOWNLOAD LINK</b><br>
<img src="https://i.imgur.com/yRbU0vs.png" class="bbCodeImage LbImage" alt="[​IMG]" data-url="https://i.imgur.com/yRbU0vs.png" style=""><br>
<div class="bbCodeBlock bbCodeVfcHH HiddenContent">
<div class="attribution type">Hidden Content:</div>
<blockquote>You must either reply or click 'Like' to see the hidden information contained here.</blockquote>
</div></div>
<div class="messageTextEndMarker">&nbsp;</div>
</blockquote>
</article>]]></description>
                <author><![CDATA[ElFunadisimo]]></author>
                </item>

                
                <item>
                <title><![CDATA[【SD】DVD - Patty Ryan - You're My Love You're My Life (Live Record) (CAMRip VOB)]]></title>
                <link><![CDATA[https://sharemania.us/threads/patty-ryan-youre-my-love-youre-my-life-live-record-camrip-vob.222071/]]></link>
                <description><![CDATA[<article>
<blockquote class="messageText SelectQuoteContainer ugc baseHtml">
<div style="text-align: center"><i><b><span style="color: #330066"><img src="https://i.postimg.cc/TPmHBQvQ/03.jpg" class="bbCodeImage LbImage" alt="[​IMG]" data-url="https://i.postimg.cc/TPmHBQvQ/03.jpg" style=""><br>
</span><br>
<span style="font-size: 26px"><span style="color: #330066"><span style="text-decoration: underline">Patty Ryan - You're My Love You're My Life</span></span></span><br>
<span style="color: #330066"><br>
<div class="bbCodeBlock bbCodeVfcHH HiddenContent">
<div class="attribution type">Hidden Content:</div>
<blockquote>You must either reply or click 'Like' to see the hidden information contained here.</blockquote>
</div></span></b></i><br>
​</div>
<div class="messageTextEndMarker">&nbsp;</div>
</blockquote>
</article>]]></description>
                <author><![CDATA[Synthwave_Evans]]></author>
                </item>

                
                <item>
                <title><![CDATA[【SD】Passion Fruit - Bongo Man (Live RTL 2001) (TVRip VOB)]]></title>
                <link><![CDATA[https://sharemania.us/threads/passion-fruit-bongo-man-live-rtl-2001-tvrip-vob.222072/]]></link>
                <description><![CDATA[<article>
<blockquote class="messageText SelectQuoteContainer ugc baseHtml">
<div style="text-align: center"><i><b><span style="color: #330066"><img src="https://i.postimg.cc/ydHrK9VK/02.jpg" class="bbCodeImage LbImage" alt="[​IMG]" data-url="https://i.postimg.cc/ydHrK9VK/02.jpg" style=""><br>
</span><br>
<span style="font-size: 26px"><span style="color: #330066"><span style="text-decoration: underline">Passion Fruit - Bongo Man (Live RTL 2001)</span></span></span><br>
<span style="color: #330066"><br>
<div class="bbCodeBlock bbCodeVfcHH HiddenContent">
<div class="attribution type">Hidden Content:</div>
<blockquote>You must either reply or click 'Like' to see the hidden information contained here.</blockquote>
</div></span></b></i><br>
​</div>
<div class="messageTextEndMarker">&nbsp;</div>
</blockquote>
</article>]]></description>
                <author><![CDATA[Synthwave_Evans]]></author>
                </item>

                </channel></rss>